<?xml version="1.0" encoding="utf-8"?>
<!-- Generator: Adobe Illustrator 16.0.0, SVG Export Plug-In . SVG Version: 6.00 Build 0)  -->
<!DOCTYPE svg PUBLIC "-//W3C//DTD SVG 1.1//EN" "http://www.w3.org/Graphics/SVG/1.1/DTD/svg11.dtd">
<svg version="1.1" id="Layer_1" xmlns="http://www.w3.org/2000/svg" xmlns:xlink="http://www.w3.org/1999/xlink" x="0px" y="0px"
	 width="220px" height="220px" viewBox="0 0 220 220" enable-background="new 0 0 220 220" xml:space="preserve">
<rect y="-0.001" fill="#003399" width="220" height="220.002"/>
<polygon fill="#FFCC00" points="184.24,71.563 192.061,65.878 182.395,65.878 179.406,56.685 176.418,65.878 166.752,65.878 
	174.574,71.563 171.586,80.757 179.408,75.072 187.227,80.757 "/>
<polygon fill="#FFCC00" points="153.796,42.404 161.614,36.724 151.948,36.724 148.96,27.53 145.973,36.724 136.307,36.724 
	144.129,42.404 141.139,51.598 148.96,45.918 156.782,51.598 "/>
<polygon fill="#FFCC00" points="114.521,31.98 122.344,26.3 112.676,26.3 109.688,17.105 106.701,26.3 97.033,26.3 104.856,31.98 
	101.867,41.174 109.69,35.49 117.508,41.174 "/>
<polygon fill="#FFCC00" points="73.163,42.404 80.984,36.72 71.317,36.724 68.33,27.53 65.344,36.724 55.676,36.724 63.498,42.404 
	60.51,51.598 68.331,45.918 76.149,51.598 "/>
<polygon fill="#FFCC00" points="43.623,72.991 51.444,67.307 41.776,67.307 38.789,58.113 35.803,67.307 26.136,67.307 
	33.957,72.991 30.967,82.185 38.791,76.501 46.608,82.185 "/>
<polygon fill="#FFCC00" points="34.188,113.172 42.007,107.487 32.342,107.487 29.354,98.298 26.369,107.487 16.701,107.491 
	24.521,113.172 21.533,122.366 29.356,116.684 37.174,122.362 "/>
<polygon fill="#FFCC00" points="43.916,153.885 51.737,148.2 42.07,148.2 39.082,139.007 36.096,148.2 26.429,148.2 34.25,153.885 
	31.263,163.079 39.084,157.395 46.901,163.075 "/>
<polygon fill="#FFCC00" points="73.163,182.813 80.984,177.134 71.317,177.134 68.33,167.939 65.344,177.134 55.676,177.134 
	63.498,182.816 60.51,192.012 68.331,186.327 76.149,192.008 "/>
<polygon fill="#FFCC00" points="114.521,193.588 122.342,187.907 112.674,187.907 109.687,178.714 106.701,187.907 97.035,187.907 
	104.854,193.588 101.867,202.782 109.688,197.098 117.51,202.782 "/>
<polygon fill="#FFCC00" points="154.761,182.666 162.583,176.986 152.913,176.986 149.925,167.792 146.938,176.986 137.27,176.986 
	145.094,182.666 142.107,191.86 149.925,186.18 157.747,191.86 "/>
<polygon fill="#FFCC00" points="184.032,153.621 191.852,147.939 182.184,147.939 179.195,138.746 176.21,147.939 166.543,147.939 
	174.366,153.621 171.376,162.814 179.198,157.135 187.018,162.814 "/>
<polygon fill="#FFCC00" points="194.807,112.607 202.626,106.929 192.958,106.929 189.97,97.735 186.984,106.929 177.318,106.929 
	185.139,112.612 182.15,121.809 189.973,116.123 197.792,121.804 "/>
<g id="Layer_1_1_">
</g>
<g>
	<path fill="#FFFFFF" d="M130.602,93.894c-1.617-0.971-5.933-3.56-11.973-3.56c-13.807,0-15.64,12.944-15.64,19.523h0.216
		c2.696-4.099,7.334-5.609,12.296-5.609c12.513,0,19.955,9.384,19.955,25.78c0,14.13-8.953,24.161-23.407,24.161
		c-22.112,0-27.505-18.554-27.505-36.675c0-16.179,4.099-41.204,31.063-41.204c7.229,0,13.269,1.618,16.072,3.02L130.602,93.894z
		 M110.216,141.03c4.638,0,6.257-4.746,6.257-11.435c0-6.688-1.402-10.895-6.148-10.895c-4.961,0-6.364,4.746-6.364,11.434
		C103.959,136.607,105.901,141.03,110.216,141.03z"/>
</g>
</svg>
